<svg xmlns="http://www.w3.org/2000/svg" width="130" height="130" style="background-color:#fff"><path fill="none" stroke="#000" stroke-width="1" stroke-linecap="round" d="M2 2H4V4H2V6 8H4V6H6V8H8V6 4H6V2H8h2V4h2V2h2 2V4H14V6h2V8H14 12V6H10V8v2 2h2V10h2 2v2H14v2h2v2H14 12V14H10v2H8 6V14H8V12 10H6v2H4V10H2v2 2H4v2H2v2 2H4V18H6 8v2H6v2H8v2H6 4V22H2v2 2H4v2H2v2 2H4V30H6v2H8V30 28H6V26H8h2 2v2H10v2 2h2V30h2v2h2V30 28H14V26h2V24 22H14v2H12 10V22h2V20H10V18h2 2v2h2V18h2v2h2V18h2 2v2H22v2h2v2H22 20V22H18v2 2h2v2H18v2 2h2V30h2v2h2V30 28H22V26h2 2 2v2H26v2 2h2V30h2v2h2V30 28H30V26h2V24 22H30v2H28 26V22h2V20H26V18h2 2v2h2V18 16H30V14h2V12 10H30v2H28V10H26v2 2h2v2H26 24V14H22v2H20 18V14h2V12H18V10h2 2v2h2V10 8 6H22V8H20 18V6h2V4H18V2h2 2V4h2V2h2 2V4H26V6 8h2V6h2V8h2V6 4H30V2h2 2V4h2V2h2 2V4H38V6h2V8H38 36V6H34V8v2h2v2H34v2 2h2V14h2v2h2V14 12H38V10h2 2 2v2H42v2 2h2V14h2v2h2V14 12H46V10h2V8 6H46V8H44 42V6h2V4H42V2h2 2V4h2V2h2 2V4H50V6 8h2V6h2V8h2V6 4H54V2h2 2V4h2V2h2 2V4H62V6h2V8H62 60V6H58V8v2 2h2V10h2 2v2H62v2h2v2H62 60V14H58v2H56 54V14h2V12 10H54v2H52V10H50v2 2h2v2H50v2h2v2H50v2 2h2V22h2v2h2V22 20H54V18h2 2v2h2V18h2 2v2H62v2h2v2H62 60V22H58v2 2 2h2V26h2 2v2H62v2h2v2H62 60V30H58v2H56 54V30h2V28 26H54v2H52V26H50v2 2h2v2H50 48V30H46v2H44 42V30h2V28H42V26h2 2v2h2V26 24H46V22h2V20 18H46v2H44V18H42v2 2h2v2H42 40 38V22h2V20 18H38v2H36V18H34v2 2h2v2H34v2 2h2V26h2 2v2H38v2h2v2H38 36V30H34v2 2 2h2V34h2 2v2H38v2h2v2H38 36V38H34v2 2h2v2H34v2 2h2V46h2v2h2V46 44H38V42h2 2 2v2H42v2 2h2V46h2v2h2V46 44H46V42h2V40 38H46v2H44 42V38h2V36H42V34h2 2v2h2V34h2 2v2H50v2 2h2V38h2v2h2V38 36H54V34h2 2v2h2V34h2 2v2H62v2h2v2H62 60V38H58v2 2 2h2V42h2 2v2H62v2h2v2H62 60V46H58v2H56 54V46h2V44 42H54v2H52V42H50v2 2h2v2H50v2h2v2H50v2 2h2V54h2v2h2V54 52H54V50h2 2v2h2V50h2 2v2H62v2h2v2H62 60V54H58v2 2 2h2V58h2 2v2H62v2h2v2H62 60V62H58v2H56 54V62h2V60 58H54v2H52V58H50v2 2h2v2H50 48V62H46v2H44 42V62h2V60H42V58h2 2v2h2V58 56H46V54h2V52 50H46v2H44V50H42v2 2h2v2H42 40 38V54h2V52 50H38v2H36V50H34v2 2h2v2H34v2 2h2V58h2 2v2H38v2h2v2H38 36V62H34v2H32 30V62h2V60 58H30v2H28V58H26v2 2h2v2H26 24V62H22v2H20 18V62h2V60H18V58h2 2v2h2V58 56 54H22v2H20 18V54h2V52H18V50h2 2v2h2V50h2 2v2H26v2 2h2V54h2v2h2V54 52H30V50h2V48 46H30v2H28 26V46h2V44H26V42h2 2v2h2V42 40H30V38h2V36 34H30v2H28V34H26v2 2h2v2H26 24 22V38h2V36 34H22v2H20V34H18v2 2h2v2H18v2 2h2V42h2 2v2H22v2h2v2H22 20V46H18v2H16V46H14v2H12 10V46h2V44H10V42h2 2v2h2V42 40H14V38h2V36 34H14v2H12V34H10v2 2h2v2H10 8 6V38H8V36 34H6v2H4V34H2v2 2H4v2H2v2 2H4V42H6 8v2H6v2H8v2H6 4V46H2v2 2H4v2H2v2 2H4V54H6v2H8V54 52H6V50H8h2v2h2V50h2 2v2H14v2h2v2H14 12V54H10v2 2 2h2V58h2 2v2H14v2h2v2H14 12V62H10v2H8 6V62H8V60 58H6v2H4V58H2v2 2H4v2H2v2 2H4V66H6 8v2H6v2H8v2H6 4V70H2v2 2H4v2H2v2 2H4V78H6v2H8V78 76H6V74H8h2 2v2H10v2 2h2V78h2v2h2V78 76H14V74h2V72 70H14v2H12 10V70h2V68H10V66h2 2v2h2V66h2 2v2H18v2 2h2V70h2v2h2V70 68H22V66h2 2v2h2V66h2 2v2H30v2h2v2H30 28V70H26v2 2 2h2V74h2 2v2H30v2h2v2H30 28V78H26v2H24 22V78h2V76 74H22v2H20V74H18v2 2h2v2H18v2h2v2H18v2 2h2V86h2v2h2V86 84H22V82h2 2v2h2V82h2 2v2H30v2h2v2H30 28V86H26v2 2 2h2V90h2 2v2H30v2h2v2H30 28V94H26v2H24 22V94h2V92 90H22v2H20V90H18v2 2h2v2H18 16V94H14v2H12 10V94h2V92H10V90h2 2v2h2V90 88H14V86h2V84 82H14v2H12V82H10v2 2h2v2H10 8 6V86H8V84 82H6v2H4V82H2v2 2H4v2H2v2 2H4V90H6 8v2H6v2H8v2H6 4V94H2v2 2H4v2H2v2 2H4v-2H6v2H8v-2-2H6V98H8h2v2h2V98h2 2v2H14v2h2v2H14 12v-2H10v2 2 2h2v-2h2 2v2H14v2h2v2H14 12v-2H10v2H8 6v-2H8v-2-2H6v2H4v-2H2v2 2H4v2H2v2 2H4v-2H6 8v2H6v2H8v2H6 4v-2H2v2 2H4v2H2v2 2H4v-2H6v2H8v-2-2H6v-2H8h2 2v2H10v2 2h2v-2h2v2h2v-2-2H14v-2h2v-2-2H14v2H12 10v-2h2v-2H10v-2h2 2v2h2v-2h2v2h2v-2h2 2v2H22v2h2v2H22 20v-2H18v2 2h2v2H18v2 2h2v-2h2v2h2v-2-2H22v-2h2 2 2v2H26v2 2h2v-2h2v2h2v-2-2H30v-2h2v-2-2H30v2H28 26v-2h2v-2H26v-2h2 2v2h2v-2-2H30v-2h2v-2-2H30v2H28v-2H26v2 2h2v2H26 24v-2H22v2H20 18v-2h2v-2H18v-2h2 2v2h2v-2-2-2H22v2H20 18v-2h2v-2H18V98h2 2v2h2V98h2 2v2H26v2 2h2v-2h2v2h2v-2-2H30V98h2 2 2v2H34v2 2h2v-2h2v2h2v-2-2H38V98h2 2v2h2V98h2 2v2H46v2h2v2H46 44v-2H42v2 2 2h2v-2h2 2v2H46v2h2v2H46 44v-2H42v2H40 38v-2h2v-2-2H38v2H36v-2H34v2 2h2v2H34v2 2h2v-2h2 2v2H38v2h2v2H38 36v-2H34v2 2h2v2H34v2 2h2v-2h2v2h2v-2-2H38v-2h2 2 2v2H42v2 2h2v-2h2v2h2v-2-2H46v-2h2v-2-2H46v2H44 42v-2h2v-2H42v-2h2 2v2h2v-2h2v2h2v-2h2 2v2H54v2h2v2H54 52v-2H50v2 2h2v2H50v2 2h2v-2h2v2h2v-2-2H54v-2h2 2 2v2H58v2 2h2v-2h2v2h2v-2-2H62v-2h2v-2-2H62v2H60 58v-2h2v-2H58v-2h2 2v2h2v-2-2H62v-2h2v-2-2H62v2H60v-2H58v2 2h2v2H58 56v-2H54v2H52 50v-2h2v-2H50v-2h2 2v2h2v-2-2-2H54v2H52 50v-2h2v-2H50V98h2 2v2h2V98h2 2v2H58v2 2h2v-2h2v2h2v-2-2H62V98h2V96 94H62v2H60 58V94h2V92H58V90h2 2v2h2V90 88H62V86h2V84 82H62v2H60V82H58v2 2h2v2H58 56 54V86h2V84 82H54v2H52V82H50v2 2h2v2H50v2 2h2V90h2 2v2H54v2h2v2H54 52V94H50v2H48 46V94h2V92 90H46v2H44V90H42v2 2h2v2H42 40V94H38v2H36 34V94h2V92H34V90h2 2v2h2V90 88 86H38v2H36 34V86h2V84H34V82h2 2v2h2V82h2 2v2H42v2 2h2V86h2v2h2V86 84H46V82h2V80H46V78h2V76 74H46v2H44V74H42v2 2h2v2H42 40V78H38v2H36 34V78h2V76H34V74h2 2v2h2V74 72 70H38v2H36 34V70h2V68H34V66h2 2v2h2V66h2 2v2H42v2 2h2V70h2v2h2V70 68H46V66h2 2v2h2V66h2 2v2H54v2h2v2H54 52V70H50v2 2h2v2H50v2 2h2V78h2v2h2V78 76H54V74h2 2 2v2H58v2 2h2V78h2v2h2V78 76H62V74h2V72 70H62v2H60 58V70h2V68H58V66h2 2v2h2V66h2v2h2V66h2 2v2H70v2h2v2H70 68V70H66v2 2h2v2H66v2 2h2V78h2v2h2V78 76H70V74h2 2 2v2H74v2 2h2V78h2v2h2V78 76H78V74h2V72 70H78v2H76 74V70h2V68H74V66h2 2v2h2V66h2 2v2H82v2 2h2V70h2v2h2V70 68H86V66h2 2v2h2V66h2 2v2H94v2h2v2H94 92V70H90v2 2 2h2V74h2 2v2H94v2h2v2H94 92V78H90v2H88 86V78h2V76 74H86v2H84V74H82v2 2h2v2H82v2h2v2H82v2 2h2V86h2v2h2V86 84H86V82h2 2v2h2V82h2 2v2H94v2h2v2H94 92V86H90v2 2 2h2V90h2 2v2H94v2h2v2H94 92V94H90v2H88 86V94h2V92 90H86v2H84V90H82v2 2h2v2H82 80V94H78v2H76 74V94h2V92H74V90h2 2v2h2V90 88H78V86h2V84 82H78v2H76V82H74v2 2h2v2H74 72 70V86h2V84 82H70v2H68V82H66v2 2h2v2H66v2 2h2V90h2 2v2H70v2h2v2H70 68V94H66v2 2h2v2H66v2 2h2v-2h2v2h2v-2-2H70V98h2 2v2h2V98h2 2v2H78v2h2v2H78 76v-2H74v2 2 2h2v-2h2 2v2H78v2h2v2H78 76v-2H74v2H72 70v-2h2v-2-2H70v2H68v-2H66v2 2h2v2H66v2 2h2v-2h2 2v2H70v2h2v2H70 68v-2H66v2 2h2v2H66v2 2h2v-2h2v2h2v-2-2H70v-2h2 2 2v2H74v2 2h2v-2h2v2h2v-2-2H78v-2h2v-2-2H78v2H76 74v-2h2v-2H74v-2h2 2v2h2v-2h2v2h2v-2h2 2v2H86v2h2v2H86 84v-2H82v2 2h2v2H82v2 2h2v-2h2v2h2v-2-2H86v-2h2 2 2v2H90v2 2h2v-2h2v2h2v-2-2H94v-2h2v-2-2H94v2H92 90v-2h2v-2H90v-2h2 2v2h2v-2-2H94v-2h2v-2-2H94v2H92v-2H90v2 2h2v2H90 88v-2H86v2H84 82v-2h2v-2H82v-2h2 2v2h2v-2-2-2H86v2H84 82v-2h2v-2H82V98h2 2v2h2V98h2 2v2H90v2 2h2v-2h2v2h2v-2-2H94V98h2 2 2v2H98v2 2h2v-2h2v2h2v-2-2h-2V98h2 2v2h2V98h2 2v2h-2v2h2v2h-2-2v-2h-2v2 2 2h2v-2h2 2v2h-2v2h2v2h-2-2v-2h-2v2h-2-2v-2h2v-2-2h-2v2h-2v-2H98v2 2h2v2H98v2 2h2v-2h2 2v2h-2v2h2v2h-2-2v-2H98v2 2h2v2H98v2 2h2v-2h2v2h2v-2-2h-2v-2h2 2 2v2h-2v2 2h2v-2h2v2h2v-2-2h-2v-2h2v-2-2h-2v2h-2-2v-2h2v-2h-2v-2h2 2v2h2v-2h2v2h2v-2h2 2v2h-2v2h2v2h-2-2v-2h-2v2 2h2v2h-2v2 2h2v-2h2v2h2v-2-2h-2v-2h2 2 2v2h-2v2 2h2v-2h2v2h2v-2-2h-2v-2h2v-2-2h-2v2h-2-2v-2h2v-2h-2v-2h2 2v2h2v-2-2h-2v-2h2v-2-2h-2v2h-2v-2h-2v2 2h2v2h-2-2v-2h-2v2h-2-2v-2h2v-2h-2v-2h2 2v2h2v-2-2-2h-2v2h-2-2v-2h2v-2h-2V98h2 2v2h2V98h2 2v2h-2v2 2h2v-2h2v2h2v-2-2h-2V98h2V96 94h-2v2h-2-2V94h2V92h-2V90h2 2v2h2V90 88h-2V86h2V84 82h-2v2h-2V82h-2v2 2h2v2h-2-2-2V86h2V84 82h-2v2h-2V82h-2v2 2h2v2h-2v2 2h2V90h2 2v2h-2v2h2v2h-2-2V94h-2v2h-2-2V94h2V92 90h-2v2h-2V90h-2v2 2h2v2h-2-2V94h-2v2h-2-2V94h2V92H98V90h2 2v2h2V90 88 86h-2v2h-2-2V86h2V84H98V82h2 2v2h2V82h2 2v2h-2v2 2h2V86h2v2h2V86 84h-2V82h2V80h-2V78h2V76 74h-2v2h-2V74h-2v2 2h2v2h-2-2V78h-2v2h-2-2V78h2V76H98V74h2 2v2h2V74 72 70h-2v2h-2-2V70h2V68H98V66h2 2v2h2V66h2 2v2h-2v2 2h2V70h2v2h2V70 68h-2V66h2 2v2h2V66h2 2v2h-2v2h2v2h-2-2V70h-2v2 2h2v2h-2v2 2h2V78h2v2h2V78 76h-2V74h2 2 2v2h-2v2 2h2V78h2v2h2V78 76h-2V74h2V72 70h-2v2h-2-2V70h2V68h-2V66h2 2v2h2V66 64h-2V62h2V60 58h-2v2h-2V58h-2v2 2h2v2h-2-2V62h-2v2h-2-2V62h2V60h-2V58h2 2v2h2V58 56 54h-2v2h-2-2V54h2V52h-2V50h2 2v2h2V50h2 2v2h-2v2 2h2V54h2v2h2V54 52h-2V50h2V48 46h-2v2h-2-2V46h2V44h-2V42h2 2v2h2V42 40h-2V38h2V36 34h-2v2h-2V34h-2v2 2h2v2h-2-2-2V38h2V36 34h-2v2h-2V34h-2v2 2h2v2h-2v2 2h2V42h2 2v2h-2v2h2v2h-2-2V46h-2v2h-2V46h-2v2h-2-2V46h2V44h-2V42h2 2v2h2V42 40h-2V38h2V36 34h-2v2h-2V34h-2v2 2h2v2h-2-2-2V38h2V36 34h-2v2h-2V34H98v2 2h2v2H98v2 2h2V42h2 2v2h-2v2h2v2h-2-2V46H98v2 2h2v2H98v2 2h2V54h2v2h2V54 52h-2V50h2 2v2h2V50h2 2v2h-2v2h2v2h-2-2V54h-2v2 2 2h2V58h2 2v2h-2v2h2v2h-2-2V62h-2v2h-2-2V62h2V60 58h-2v2h-2V58H98v2 2h2v2H98 96V62H94v2H92 90V62h2V60H90V58h2 2v2h2V58 56H94V54h2V52 50H94v2H92V50H90v2 2h2v2H90 88 86V54h2V52 50H86v2H84V50H82v2 2h2v2H82v2 2h2V58h2 2v2H86v2h2v2H86 84V62H82v2H80 78V62h2V60 58H78v2H76V58H74v2 2h2v2H74 72V62H70v2H68 66V62h2V60H66V58h2 2v2h2V58 56 54H70v2H68 66V54h2V52H66V50h2 2v2h2V50h2 2v2H74v2 2h2V54h2v2h2V54 52H78V50h2V48H78V46h2V44 42H78v2H76V42H74v2 2h2v2H74 72V46H70v2H68 66V46h2V44H66V42h2 2v2h2V42 40 38H70v2H68 66V38h2V36H66V34h2 2v2h2V34h2 2v2H74v2 2h2V38h2v2h2V38 36H78V34h2 2v2h2V34h2 2v2H86v2h2v2H86 84V38H82v2 2h2v2H82v2 2h2V46h2v2h2V46 44H86V42h2 2 2v2H90v2 2h2V46h2v2h2V46 44H94V42h2V40 38H94v2H92 90V38h2V36H90V34h2 2v2h2V34 32 30H94v2H92 90V30h2V28H90V26h2 2v2h2V26 24H94V22h2V20 18H94v2H92V18H90v2 2h2v2H90 88 86V22h2V20 18H86v2H84V18H82v2 2h2v2H82v2 2h2V26h2 2v2H86v2h2v2H86 84V30H82v2H80 78V30h2V28 26H78v2H76V26H74v2 2h2v2H74 72V30H70v2H68 66V30h2V28H66V26h2 2v2h2V26 24 22H70v2H68 66V22h2V20H66V18h2 2v2h2V18h2 2v2H74v2 2h2V22h2v2h2V22 20H78V18h2V16H78V14h2V12 10H78v2H76V10H74v2 2h2v2H74 72V14H70v2H68 66V14h2V12H66V10h2 2v2h2V10 8 6H70V8H68 66V6h2V4H66V2h2 2V4h2V2h2 2V4H74V6 8h2V6h2V8h2V6 4H78V2h2 2V4h2V2h2 2V4H86V6h2V8H86 84V6H82V8v2h2v2H82v2 2h2V14h2v2h2V14 12H86V10h2 2 2v2H90v2 2h2V14h2v2h2V14 12H94V10h2V8 6H94V8H92 90V6h2V4H90V2h2 2V4h2V2h2 2V4H98V6 8h2V6h2V8h2V6 4h-2V2h2 2V4h2V2h2 2V4h-2V6h2V8h-2-2V6h-2V8v2 2h2V10h2 2v2h-2v2h2v2h-2-2V14h-2v2h-2-2V14h2V12 10h-2v2h-2V10H98v2 2h2v2H98v2 2h2V18h2 2v2h-2v2h2v2h-2-2V22H98v2 2h2v2H98v2 2h2V30h2v2h2V30 28h-2V26h2 2 2v2h-2v2 2h2V30h2v2h2V30 28h-2V26h2V24 22h-2v2h-2-2V22h2V20h-2V18h2 2v2h2V18h2v2h2V18h2 2v2h-2v2h2v2h-2-2V22h-2v2 2h2v2h-2v2 2h2V30h2v2h2V30 28h-2V26h2 2 2v2h-2v2 2h2V30h2v2h2V30 28h-2V26h2V24 22h-2v2h-2-2V22h2V20h-2V18h2 2v2h2V18 16h-2V14h2V12 10h-2v2h-2V10h-2v2 2h2v2h-2-2V14h-2v2h-2-2V14h2V12h-2V10h2 2v2h2V10 8 6h-2V8h-2-2V6h2V4h-2V2h2 2V4h2V2h2 2V4h-2V6 8h2V6h2V8h2V6 4h-2V2h2" /></svg>